<svg width="500" height="500" viewBox="0 0 500 500" fill="none" xmlns="http://www.w3.org/2000/svg">
<rect width="500" height="500" fill="#E3E3E3"/>
<path d="M189.875 242.875C189.875 217.892 189.875 205.397 197.639 197.639C205.404 189.882 217.892 189.875 242.875 189.875H256.125C281.108 189.875 293.603 189.875 301.36 197.639C309.118 205.404 309.125 217.892 309.125 242.875V256.125C309.125 281.108 309.125 293.603 301.36 301.36C293.596 309.118 281.108 309.125 256.125 309.125H242.875C217.892 309.125 205.397 309.125 197.639 301.36C189.882 293.596 189.875 281.108 189.875 256.125V242.875Z" stroke="#818181" stroke-width="13.25"/>
<path d="M223.764 236.331C226.613 236.09 229.472 236.59 232.065 237.779L232.58 238.026L232.582 238.027C235.621 239.546 237.731 242.226 239.635 245.601V245.602C241.482 248.895 243.384 253.326 245.767 258.879V258.88L245.913 259.224L245.917 259.236L246.269 260.057L246.27 260.06C247.364 262.614 248.103 264.311 248.763 265.534V265.535L248.842 265.687L250.762 269.367L253.925 266.678L254.057 266.566L254.056 266.565C255.136 265.676 256.458 264.353 258.373 262.444L258.565 262.258L260.479 260.345C262.26 258.574 263.795 257.092 265.185 255.919C267.127 254.288 269.008 253.05 271.223 252.379L271.222 252.378C274.144 251.498 277.249 251.444 280.194 252.215L280.781 252.38L280.784 252.381C282.717 252.962 284.4 253.985 286.087 255.324L286.812 255.916C288.464 257.31 290.322 259.138 292.557 261.369C292.548 264.843 292.529 267.916 292.478 270.661L288.902 267.086C286.124 264.308 284.177 262.363 282.538 260.984H282.537C281.129 259.795 280.131 259.185 279.249 258.852L278.877 258.726L278.872 258.724L278.52 258.625C276.868 258.192 275.132 258.192 273.48 258.625L273.128 258.724L273.123 258.726C272.268 258.986 271.337 259.48 270.038 260.511L269.462 260.984C267.823 262.363 265.877 264.307 263.104 267.079L262.905 267.278C261.094 269.089 259.57 270.608 258.244 271.707C256.862 272.846 255.327 273.852 253.454 274.188C251.203 274.582 248.889 274.186 246.901 273.078L246.508 272.846L246.506 272.845L246.209 272.652C244.951 271.789 244.05 270.609 243.306 269.347L242.972 268.759C242.148 267.242 241.3 265.269 240.296 262.923L240.274 262.874L240.175 262.656L239.833 261.852L239.831 261.849L238.074 257.765C236.571 254.3 235.339 251.583 234.179 249.436L233.864 248.865L233.863 248.864L233.555 248.326C232.029 245.731 230.816 244.56 229.629 243.956L229.609 243.947L229.301 243.799C227.745 243.087 226.03 242.788 224.322 242.933V242.934C222.947 243.044 221.364 243.72 219.032 245.526L218.551 245.907L218.547 245.91C216.557 247.517 214.264 249.707 211.336 252.608L208.183 255.75L206.438 257.494C206.438 257.043 206.438 256.587 206.438 256.125V248.134C209.518 245.074 212.105 242.592 214.398 240.745L214.397 240.744C217.324 238.392 220.184 236.721 223.442 236.362L223.759 236.331H223.764Z" fill="#1E1E1E" stroke="#818181" stroke-width="6.625"/>
<path d="M279.312 213.062C282.971 213.062 285.938 216.029 285.938 219.688C285.938 223.346 282.971 226.312 279.312 226.312C275.654 226.312 272.688 223.346 272.688 219.688C272.688 216.029 275.654 213.062 279.312 213.062Z" fill="#818181" stroke="#818181" stroke-width="6.625"/>
</svg>
